<svg xmlns="http://www.w3.org/2000/svg" width="22.542" height="13.976" viewBox="0 0 22.542 13.976">
  <path d="M11.271,0C7.354,0,3.615,2.208.456,6.385L0,6.988l.456.6c3.159,4.176,6.9,6.384,10.815,6.384s7.656-2.208,10.814-6.384l.457-.6-.457-.6C18.926,2.208,15.187,0,11.271,0ZM2.524,6.988C5.161,3.742,8.151,2.026,11.212,2a4.986,4.986,0,0,0-.654,9.922C7.727,11.682,4.972,10,2.524,6.988Zm9.467,4.938a4.986,4.986,0,0,0-.655-9.921c3.058.024,6.046,1.739,8.681,4.983C17.571,10,14.819,11.679,11.991,11.926Z"/>
</svg>
