<svg xmlns="http://www.w3.org/2000/svg" width="22.605" height="21.414" viewBox="0 0 22.605 21.414">
  <g>
    <path d="M3.439,14.482l1.414-1.414a17.409,17.409,0,0,1-2.321-2.35C4.788,7.968,7.3,6.333,9.9,5.9a4.939,4.939,0,0,0-3.616,5.743L12.1,5.823h0l.005-.005.016-.016h0l1.707-1.708A10.529,10.529,0,0,0,11.3,3.766c-3.925,0-7.673,2.2-10.84,6.346L0,10.719l.463.605A20.163,20.163,0,0,0,3.439,14.482Z"/>
    <path d="M17.66,5.809l4.395-4.4L20.64,0,.64,20l1.414,1.414,4.759-4.759A10.774,10.774,0,0,0,11.3,17.67c3.924,0,7.673-2.194,10.84-6.346l.463-.605-.463-.607A18.6,18.6,0,0,0,17.66,5.809Zm-9.121,9.12a4.972,4.972,0,0,0,1.421.623,9.042,9.042,0,0,1-1.607-.437Zm1.559.651-.073-.014C10.049,15.572,10.075,15.574,10.1,15.58Zm2,.034a5,5,0,0,0,4.086-4.907,4.918,4.918,0,0,0-.778-2.649l.8-.8a15.518,15.518,0,0,1,3.865,3.459C17.642,13.68,14.912,15.346,12.1,15.614Z"/>
  </g>
</svg>
