<svg xmlns="http://www.w3.org/2000/svg" viewBox="0 0 48 48"><defs><style>.cls-1{fill:#1e0f00;}</style></defs><title>Asset 431</title><g id="Layer_2" data-name="Layer 2"><g id="_1" data-name="1"><path class="cls-1" d="M24,28a4,4,0,1,1,4-4A4,4,0,0,1,24,28Zm0-6a2,2,0,1,0,2,2A2,2,0,0,0,24,22Z"/><rect class="cls-1" x="18.07" y="12.92" width="2" height="9.82" transform="translate(-6.96 15.82) rotate(-38.66)"/><rect class="cls-1" x="26.16" y="19.77" width="7.3" height="2" transform="translate(-6.34 17.08) rotate(-29.04)"/><rect class="cls-1" x="36" y="23" width="2" height="2"/><rect class="cls-1" x="10" y="23" width="2" height="2"/><rect class="cls-1" x="23" y="10" width="2" height="2"/><rect class="cls-1" x="23" y="36" width="2" height="2"/><path class="cls-1" d="M24,48A24,24,0,1,1,48,24,24,24,0,0,1,24,48ZM24,2A22,22,0,1,0,46,24,22,22,0,0,0,24,2Z"/><path class="cls-1" d="M24,41a17,17,0,1,1,12.75-5.76l-1.5-1.32a15,15,0,1,0-4,3.21l1,1.75A17,17,0,0,1,24,41Z"/><path class="cls-1" d="M41,36H35a1,1,0,0,1-1-1V29h2v5h5Z"/></g></g></svg>