<svg xmlns="http://www.w3.org/2000/svg" viewBox="0 0 512 512"><title>Share</title><g id="Share"><g id="Share-2" data-name="Share"><path d="M256,73.8206a182.1794,182.1794,0,1,0,0,364.3588c100.6082,0,182.18-81.5706,182.18-182.18S356.6083,73.8206,256,73.8206ZM235.7321,256a31.94,31.94,0,0,1-1.8982,10.8108l50.8536,24.46a32.6487,32.6487,0,1,1-7.9893,16.5932l-54.1314-26.0324a32.01,32.01,0,1,1,0-51.6627l54.14-26.0325a30.7553,30.7553,0,0,1-.4391-4.9573,32.1055,32.1055,0,1,1,8.4194,21.5686l-50.8536,24.4512A31.8515,31.8515,0,0,1,235.7321,256Z"/></g></g></svg>